<svg width="414" height="740" viewBox="0 0 414 740" fill="none" xmlns="http://www.w3.org/2000/svg">
<path opacity="0.9" d="M-498.641 129.628C-498.641 129.628 -321.762 50.5069 -87.9592 99.2997C170.699 153.238 478.076 184.069 697.648 120.547C917.221 57.025 895.31 28.3235 895.31 28.3235" stroke="white" stroke-miterlimit="10"/>
<path opacity="0.9" d="M-490.82 236.284C-490.82 236.284 -313.023 157.098 -78.2999 205.825C181.5 259.582 393.718 245.281 614.44 181.677C835.162 118.073 911.556 159.23 911.556 159.23" stroke="white" stroke-miterlimit="10"/>
<path opacity="0.9" d="M-498.851 702.91C-498.851 702.91 -316.214 770.189 -85.2198 706.074C170.466 635.287 383.164 635.549 607.603 684.445C832.042 733.341 905.553 687.232 905.553 687.232" stroke="white" stroke-miterlimit="10"/>
</svg>
